<svg xmlns="http://www.w3.org/2000/svg" xmlns:xlink="http://www.w3.org/1999/xlink" width="100%" height="100%" version="1.1" viewBox="0 0 160 145" xml:space="preserve" style="fill-rule:evenodd;clip-rule:evenodd;stroke-linejoin:round;stroke-miterlimit:1.41421"><path d="M11.142,45.302l45.301,-45.302c14.82,14.819 14.82,38.846 0,53.665l-45.301,45.303c-14.82,-14.82 -14.82,-38.847 0,-53.666l0,0Z" style="fill:#095684;fill-rule:nonzero"/><path d="M56.411,90.635l-14.562,-14.562l-30.74,-30.739c-10.09,10.091 -13.303,24.446 -9.654,37.261c1.712,6.006 4.923,11.676 9.654,16.405l45.302,45.301c14.819,-14.818 14.819,-38.846 0,-53.666l0,0Z" style="fill:#23b99a;fill-rule:nonzero"/><path d="M147.903,45.302l-45.301,-45.302c-14.819,14.819 -14.819,38.846 0,53.665l45.301,45.303c14.82,-14.82 14.82,-38.847 0,-53.666l0,0Z" style="fill:#23b99a;fill-rule:nonzero"/><path d="M102.635,90.635l14.562,-14.562l30.74,-30.739c10.089,10.091 13.302,24.446 9.653,37.261c-1.711,6.006 -4.924,11.676 -9.653,16.405l-45.302,45.301c-14.82,-14.818 -14.82,-38.846 0,-53.666l0,0Z" style="fill:#095684;fill-rule:nonzero"/><path d="M11.141,45.302l45.302,-45.302c14.82,14.819 14.82,38.846 0,53.665l-45.302,45.303c-14.819,-14.82 -14.819,-38.847 0,-53.666l0,0Z" style="fill:#095684;fill-rule:nonzero"/><path d="M56.411,90.635l-14.563,-14.562l-30.739,-30.739c-10.09,10.091 -13.303,24.446 -9.654,37.261c1.712,6.006 4.923,11.676 9.654,16.405l45.302,45.301c14.819,-14.818 14.819,-38.846 -0.001,-53.666l0,0Z" style="fill:#23b99a;fill-rule:nonzero"/><path d="M147.903,45.302l-45.301,-45.302c-14.82,14.819 -14.82,38.846 0,53.665l45.301,45.303c14.82,-14.82 14.82,-38.847 0,-53.666l0,0Z" style="fill:#23b99a;fill-rule:nonzero"/><path d="M102.635,90.635l14.561,-14.562l30.741,-30.739c10.089,10.091 13.302,24.446 9.652,37.261c-1.71,6.006 -4.923,11.676 -9.652,16.405l-45.303,45.301c-14.82,-14.818 -14.82,-38.846 0,-53.666l0,0Z" style="fill:#095684;fill-rule:nonzero"/></svg>