<?xml version="1.0" encoding="utf-8"?>
<svg xmlns="http://www.w3.org/2000/svg" xmlns:xlink="http://www.w3.org/1999/xlink" style="margin: auto; background: rgb(255, 255, 255) none repeat scroll 0% 0%; display: block; shape-rendering: auto;" width="200px" height="200px" viewBox="0 0 100 100" preserveAspectRatio="xMidYMid">
<g transform="rotate(0 50 50)">
  <rect x="48.5" y="25.5" rx="0" ry="0" width="3" height="9" fill="#000000">
    <animate attributeName="opacity" values="1;0" keyTimes="0;1" dur="1.6393442622950818s" begin="-1.5132408575031524s" repeatCount="indefinite"></animate>
  </rect>
</g><g transform="rotate(27.692307692307693 50 50)">
  <rect x="48.5" y="25.5" rx="0" ry="0" width="3" height="9" fill="#000000">
    <animate attributeName="opacity" values="1;0" keyTimes="0;1" dur="1.6393442622950818s" begin="-1.387137452711223s" repeatCount="indefinite"></animate>
  </rect>
</g><g transform="rotate(55.38461538461539 50 50)">
  <rect x="48.5" y="25.5" rx="0" ry="0" width="3" height="9" fill="#000000">
    <animate attributeName="opacity" values="1;0" keyTimes="0;1" dur="1.6393442622950818s" begin="-1.2610340479192936s" repeatCount="indefinite"></animate>
  </rect>
</g><g transform="rotate(83.07692307692308 50 50)">
  <rect x="48.5" y="25.5" rx="0" ry="0" width="3" height="9" fill="#000000">
    <animate attributeName="opacity" values="1;0" keyTimes="0;1" dur="1.6393442622950818s" begin="-1.1349306431273642s" repeatCount="indefinite"></animate>
  </rect>
</g><g transform="rotate(110.76923076923077 50 50)">
  <rect x="48.5" y="25.5" rx="0" ry="0" width="3" height="9" fill="#000000">
    <animate attributeName="opacity" values="1;0" keyTimes="0;1" dur="1.6393442622950818s" begin="-1.0088272383354349s" repeatCount="indefinite"></animate>
  </rect>
</g><g transform="rotate(138.46153846153845 50 50)">
  <rect x="48.5" y="25.5" rx="0" ry="0" width="3" height="9" fill="#000000">
    <animate attributeName="opacity" values="1;0" keyTimes="0;1" dur="1.6393442622950818s" begin="-0.8827238335435055s" repeatCount="indefinite"></animate>
  </rect>
</g><g transform="rotate(166.15384615384616 50 50)">
  <rect x="48.5" y="25.5" rx="0" ry="0" width="3" height="9" fill="#000000">
    <animate attributeName="opacity" values="1;0" keyTimes="0;1" dur="1.6393442622950818s" begin="-0.7566204287515762s" repeatCount="indefinite"></animate>
  </rect>
</g><g transform="rotate(193.84615384615384 50 50)">
  <rect x="48.5" y="25.5" rx="0" ry="0" width="3" height="9" fill="#000000">
    <animate attributeName="opacity" values="1;0" keyTimes="0;1" dur="1.6393442622950818s" begin="-0.6305170239596468s" repeatCount="indefinite"></animate>
  </rect>
</g><g transform="rotate(221.53846153846155 50 50)">
  <rect x="48.5" y="25.5" rx="0" ry="0" width="3" height="9" fill="#000000">
    <animate attributeName="opacity" values="1;0" keyTimes="0;1" dur="1.6393442622950818s" begin="-0.5044136191677174s" repeatCount="indefinite"></animate>
  </rect>
</g><g transform="rotate(249.23076923076923 50 50)">
  <rect x="48.5" y="25.5" rx="0" ry="0" width="3" height="9" fill="#000000">
    <animate attributeName="opacity" values="1;0" keyTimes="0;1" dur="1.6393442622950818s" begin="-0.3783102143757881s" repeatCount="indefinite"></animate>
  </rect>
</g><g transform="rotate(276.9230769230769 50 50)">
  <rect x="48.5" y="25.5" rx="0" ry="0" width="3" height="9" fill="#000000">
    <animate attributeName="opacity" values="1;0" keyTimes="0;1" dur="1.6393442622950818s" begin="-0.2522068095838587s" repeatCount="indefinite"></animate>
  </rect>
</g><g transform="rotate(304.61538461538464 50 50)">
  <rect x="48.5" y="25.5" rx="0" ry="0" width="3" height="9" fill="#000000">
    <animate attributeName="opacity" values="1;0" keyTimes="0;1" dur="1.6393442622950818s" begin="-0.12610340479192936s" repeatCount="indefinite"></animate>
  </rect>
</g><g transform="rotate(332.3076923076923 50 50)">
  <rect x="48.5" y="25.5" rx="0" ry="0" width="3" height="9" fill="#000000">
    <animate attributeName="opacity" values="1;0" keyTimes="0;1" dur="1.6393442622950818s" begin="0s" repeatCount="indefinite"></animate>
  </rect>
</g>
<!-- [ldio] generated by https://loading.io/ --></svg>